<?xml version="1.0" standalone="no"?>
<!DOCTYPE svg PUBLIC "-//W3C//DTD SVG 20010904//EN"
 "http://www.w3.org/TR/2001/REC-SVG-20010904/DTD/svg10.dtd">
<svg version="1.0" xmlns="http://www.w3.org/2000/svg"
 width="647.000000pt" height="647.000000pt" viewBox="0 0 647.000000 647.000000"
 preserveAspectRatio="xMidYMid meet">
<metadata>
Created by potrace 1.11, written by Peter Selinger 2001-2013
</metadata>
<g transform="translate(0.000000,647.000000) scale(0.100000,-0.100000)"
fill="#000000" stroke="none">
<path d="M3169 5314 c-24 -20 -76 -71 -115 -113 -221 -241 -415 -510 -551
-767 -30 -57 -57 -104 -60 -104 -4 0 -47 26 -97 59 -178 115 -349 203 -588
301 -143 59 -382 138 -442 146 -40 6 -48 4 -74 -22 -24 -25 -35 -53 -65 -179
-73 -306 -97 -491 -104 -805 -2 -135 -1 -284 4 -331 l9 -86 -231 -6 c-277 -7
-478 -32 -715 -88 -111 -27 -135 -50 -127 -123 7 -63 69 -270 130 -433 172
-458 435 -862 732 -1125 352 -311 775 -473 1334 -509 279 -18 615 9 921 74 94
20 111 21 160 10 102 -24 334 -61 455 -74 173 -18 541 -16 700 5 590 76 1022
306 1378 734 266 320 476 736 603 1191 40 147 42 174 11 205 -62 62 -550 136
-897 136 l-156 0 9 88 c5 48 6 200 4 337 -7 315 -30 490 -104 800 -30 126 -41
154 -65 179 -36 36 -61 34 -241 -24 -307 -98 -663 -265 -879 -412 -32 -21 -64
-41 -71 -44 -10 -3 -34 31 -78 113 -143 264 -373 576 -578 786 -133 134 -143
138 -212 81z m256 -389 c95 -115 210 -276 285 -396 58 -94 174 -309 169 -312
-2 -2 -50 -42 -105 -90 -207 -178 -384 -393 -499 -608 l-41 -78 -28 57 c-64
132 -213 336 -349 479 -54 57 -236 220 -265 239 -6 4 80 168 141 269 115 193
271 402 426 574 l75 84 54 -59 c30 -32 91 -104 137 -159z m-1740 -393 c141
-57 278 -121 397 -188 122 -67 288 -173 288 -183 0 -3 -14 -42 -31 -86 -103
-267 -155 -567 -147 -839 l4 -144 -50 30 c-209 123 -516 225 -790 261 l-91 13
-7 39 c-3 22 -9 112 -13 200 -11 255 20 590 81 875 13 63 26 120 29 127 4 13
156 -35 330 -105z m3464 -47 c58 -284 74 -442 74 -735 0 -303 -6 -354 -43
-358 -300 -32 -658 -146 -866 -276 l-41 -26 5 133 c10 263 -32 514 -134 807
l-45 131 23 19 c84 68 428 254 624 336 133 56 358 133 366 126 3 -4 20 -74 37
-157z m-2538 -512 c113 -103 235 -238 315 -348 61 -86 214 -372 214 -402 0 -7
-13 -59 -30 -114 -67 -225 -101 -478 -104 -757 -1 -118 -4 -168 -11 -157 -5 8
-39 64 -74 124 -99 172 -239 350 -392 502 l-137 136 -10 84 c-30 232 -24 405
23 633 23 117 102 376 114 376 3 0 45 -35 92 -77z m1379 -27 c42 -122 77 -264
95 -387 20 -127 22 -368 5 -504 l-13 -100 -105 -100 c-170 -162 -351 -397
-462 -599 -23 -42 -44 -76 -46 -76 -2 0 -1 30 2 68 7 83 -11 377 -32 526 -15
97 -58 285 -95 412 -12 41 -11 44 53 175 68 140 142 256 238 375 79 96 311
317 322 306 5 -5 22 -48 38 -96z m-2870 -763 c58 -288 167 -561 310 -775 282
-424 768 -791 1353 -1023 53 -22 97 -42 97 -46 0 -17 -252 -34 -505 -34 -295
1 -393 11 -613 65 -150 37 -240 69 -377 135 -455 220 -820 660 -1068 1290 -48
120 -117 331 -117 355 0 8 171 42 305 60 131 18 270 27 442 29 l162 1 11 -57z
m4630 47 c208 -15 520 -65 520 -82 0 -18 -84 -267 -127 -378 -97 -247 -268
-550 -421 -744 -86 -110 -287 -304 -392 -378 -229 -162 -487 -263 -820 -320
-108 -19 -164 -22 -415 -23 -280 0 -528 17 -508 35 4 4 51 24 103 45 459 180
909 486 1184 806 253 294 383 568 481 1016 3 12 13 24 23 26 32 9 237 7 372
-3z m-4330 -30 c270 -45 565 -164 766 -311 49 -36 53 -42 69 -111 89 -365 316
-805 599 -1160 47 -60 84 -108 81 -108 -3 0 -78 31 -167 69 -586 253 -1031
621 -1268 1047 -85 152 -162 364 -205 562 -7 33 -7 33 27 28 18 -3 62 -11 98
-16z m3760 13 c0 -24 -63 -251 -90 -323 -104 -283 -250 -501 -486 -730 -186
-179 -391 -325 -654 -463 -106 -55 -398 -187 -416 -187 -3 0 7 15 21 33 312
381 529 780 643 1179 l38 133 75 52 c194 136 468 242 754 294 122 21 115 21
115 12z m-1913 -493 c27 -176 24 -642 -5 -844 -12 -82 -23 -151 -26 -153 -5
-5 -11 31 -33 187 -12 93 -17 197 -17 405 -1 269 5 358 36 520 11 56 12 58 20
30 4 -17 16 -82 25 -145z m-690 -208 c143 -178 270 -392 371 -623 72 -163 97
-229 80 -209 -104 122 -281 387 -376 560 -63 117 -172 370 -158 370 3 0 41
-44 83 -98z m1382 41 c-35 -97 -184 -392 -254 -503 -100 -158 -252 -366 -262
-357 -7 7 68 182 142 332 84 169 201 355 311 493 41 50 77 92 79 92 3 0 -5
-26 -16 -57z"/>
</g>
</svg>
